<svg xmlns="http://www.w3.org/2000/svg" xmlns:xlink="http://www.w3.org/1999/xlink" id="Ebene_1" x="0px" y="0px" viewBox="0 0 841.9 255.1" style="enable-background:new 0 0 841.9 255.1;" xml:space="preserve"><style type="text/css">	.st0{fill:#E49023;}	.st1{fill:#878787;}	.st2{fill-rule:evenodd;clip-rule:evenodd;fill:url(#SVGID_1_);}	.st3{fill-rule:evenodd;clip-rule:evenodd;fill:url(#SVGID_00000039091571515319382440000002833601472447145641_);}	.st4{fill-rule:evenodd;clip-rule:evenodd;fill:url(#SVGID_00000114794242482770588160000016379547639954555565_);}	.st5{fill-rule:evenodd;clip-rule:evenodd;fill:url(#SVGID_00000043424879762254076380000000327126817857513404_);}	.st6{fill-rule:evenodd;clip-rule:evenodd;fill:url(#SVGID_00000006668213554552234290000006751527836210908307_);}	.st7{fill-rule:evenodd;clip-rule:evenodd;fill:url(#SVGID_00000106869257655170972710000016192925549033288866_);}</style><path class="st0" d="M204.6,247.1c-8.4-5-11.4-16.3-6.1-25.2c0.7-1.3,2.2-2.7,3.1-4.4L166,152.9c-1.4,0.6-3,1.1-4.5,1.5 c-0.1,0-0.3,0.1-0.4,0.1c-1.8,0.4-3.6,0.6-5.5,0.7c-1.5,0-2.9-0.1-4.4-0.2c0,0,0,0,0,0l-15.3,55.6c3.7,2.6,6.7,6.3,7.8,10.6 c2.6,9.9-3.5,19.6-13,22c-9.9,2.6-19.9-2.9-22.5-12.9c-2.4-9.5,3.5-19.6,13.4-22.1c1.4-0.4,3.4-0.4,5.3-0.9l15.9-54.8 c-0.5-0.3-1.1-0.4-1.6-0.7c-0.3-0.2-0.5-0.3-0.8-0.5c-1.2-0.8-2.3-1.7-3.4-2.6c-2.2-2-4.2-4.3-5.7-7c-0.3-0.5-0.6-1-0.8-1.6 c-0.6-1.2-1.1-2.4-1.5-3.6c-0.2-0.7-0.4-1.4-0.6-2.1c-0.1-0.6-0.4-1.2-0.5-1.8l-75.7-0.4c-1,1.7-1.5,2.5-2.2,3.8 c-5.2,8.8-16.3,11.4-24.7,6.4c-8.8-5.2-12-16.2-6.8-25c5-8.4,16.3-11.4,25.2-6.2c4.2,2.5,7.4,6.6,8.8,12l75.5,0.8 c0.5-1.9,1.1-3.6,1.7-5.2c0.5-1.2,1.1-2.4,1.8-3.6c0.1-0.2,0.2-0.4,0.3-0.6c2.1-3.4,4.8-6.2,7.9-8.3l-15.7-41.2 c-1.9-0.3-2.9-0.5-4.3-0.7c-10.1-1.7-16.5-11.1-14.9-20.8c1.7-10.1,10.7-17,20.9-15.4c9.6,1.6,16.5,11.1,14.8,21.3 c-0.8,4.8-3.5,9.3-8,12.5l15.2,40.7c0.1,0,0.2-0.1,0.3-0.1c3.1-0.8,6.1-1,9.1-0.7c0.2,0,0.4,0,0.7,0.1c1.4,0.2,2.8,0.4,4.1,0.8 c0.1,0,0.1,0,0.2,0c0.8,0.2,1.6,0.4,2.4,0.6l37.8-65.1c-6.2-5.9-8.6-15.3-3.9-23.3c5-8.4,16.3-11.4,25.2-6.2 c8.4,5,11.4,16.3,6.4,24.8c-4.2,7.2-12.3,10.3-19.9,8.7l-38.6,65.4l-0.1,0.2c3.8,3.1,6.5,6.9,8.1,11l1.3,6.9 c0.5,4.5-0.2,8.8-1.7,12.7c-0.4,1-0.8,2-1.4,2.9c-0.1,0.1-0.1,0.3-0.2,0.4c-1.2,2-2.8,3.9-4.5,5.7l0,0.1l37.3,65.6 c4.4-0.8,9.2-0.2,13,2c8.8,5.2,11.4,16.3,6.4,24.8C224.4,249.1,213.5,252.3,204.6,247.1z"></path><g>	<path class="st1" d="M764.9,148.7c0,12.1-5.9,18.2-17.8,18.2h-10.7h-2.4h-57v-7h57h2.4h10c7.7,0,11.5-3.9,11.5-11.7v-30.5  c0-7.8-3.8-11.7-11.5-11.7h-25.4v29.7h-7.1V99.1h33.2c11.9,0,17.8,6.1,17.8,18.2V148.7z"></path>	<path class="st1" d="M389.4,152c0,9.9-4.9,14.9-14.6,14.9h-11.1h-53.2v-7h53.2h10.4c5.6,0,8.5-2.9,8.5-8.6l0-8.4  c0-5.1-2.5-7.7-7.5-7.7h-20.1c-8.8,0-13.2-4.5-13.2-13.5v-7.8c0-9.9,4.9-14.9,14.6-14.9h30.8v7h-30.1c-5.6,0-8.4,2.9-8.4,8.6v6.5  c0,5.1,2.5,7.7,7.5,7.7h20c8.8,0,13.2,4.5,13.2,13.5V152z"></path>	<path class="st1" d="M451.4,99.1v7h-26.8c-6.3,0-9.4,3.2-9.4,9.6v34.8c0,6.4,3.1,9.6,9.4,9.6h26.8v7h-28.1  c-10.1,0-15.1-5.1-15.1-15.4v-37c0-10.3,5-15.4,15.1-15.4H451.4z"></path>	<path class="st1" d="M477.8,99.1v29.6h34.4V99.1h7.1v67.8h-7.1v-31.6h-34.4v31.6h-7.1V99.1H477.8z"></path>	<path class="st1" d="M548.6,99.1l23.3,60.1l23-60.1h8.3v67.8h-6.6v-54.7l-21.4,54.7h-6.8l-21.7-54.8v54.8h-6.5V99.1H548.6z"></path>	<path class="st1" d="M631.3,99.1v67.8h-7.1V99.1H631.3z"></path>	<polygon class="st1" points="659.2,159.9 659.2,135.8 693.8,135.8 693.8,129.1 659.2,129.1 659.2,106 694.4,106 694.4,99.1   652.2,99.1 652.2,166.9 670.4,166.9 670.4,159.9  "></polygon>	<path class="st1" d="M827.4,99.1v7h-35.1v23h34.6v6.7h-34.6v24.2h35.5v7h-42.6V99.1H827.4z"></path>	<g>		<path class="st1" d="M327.2,188.2v2.5h-11c-2,0-3.1,1-3.1,3.2v2.4c0,1.9,0.9,2.8,2.7,2.8h7.3c3.2,0,4.8,1.6,4.8,4.9v3.5   c0,3.6-1.8,5.4-5.3,5.4h-11.9v-2.5h11.6c2.1,0,3.1-1,3.1-3.2v-3c0-1.9-0.9-2.8-2.7-2.8h-7.3c-3.2,0-4.8-1.6-4.8-4.9v-2.8   c0-3.6,1.8-5.4,5.3-5.4H327.2z"></path>		<path class="st1" d="M359.4,188.2l7.8,12l7.8-12h2.9l-9.3,14.2V213h-2.6v-10.5l-9.4-14.2H359.4z"></path>		<path class="st1" d="M421.8,188.2v2.5h-11c-2,0-3.1,1-3.1,3.2v2.4c0,1.9,0.9,2.8,2.8,2.8h7.3c3.2,0,4.8,1.6,4.8,4.9v3.5   c0,3.6-1.8,5.4-5.3,5.4h-11.9v-2.5H417c2.1,0,3.1-1,3.1-3.2v-3c0-1.9-0.9-2.8-2.7-2.8H410c-3.2,0-4.8-1.6-4.8-4.9v-2.8   c0-3.6,1.8-5.4,5.3-5.4H421.8z"></path>		<path class="st1" d="M468.4,188.2v2.5h-7.4V213h-2.6v-22.2h-7.5v-2.5H468.4z"></path>		<path class="st1" d="M513.9,188.2v2.5h-12.8v8.4h12.6v2.4h-12.6v8.8h12.9v2.5h-15.5v-24.7H513.9z"></path>		<path class="st1" d="M547.8,188.2l8.5,21.9l8.4-21.9h3V213h-2.4V193l-7.8,19.9H555l-7.9-20v20h-2.4v-24.7H547.8z"></path>		<path class="st1" d="M601.7,188.2V199h12.5v-10.8h2.6V213h-2.6v-11.5h-12.5V213h-2.6v-24.7H601.7z"></path>		<path class="st1" d="M663.3,204.6l-5.5-13.4l-8.7,21.8h-2.7l10.1-24.7h2.8l10.3,24.7h-2.9l-2.4-6h-11.3l0.9-2.4H663.3z"></path>		<path class="st1" d="M700.2,188.2v18.7c0,2.3,1.1,3.5,3.4,3.5h6.6c2.3,0,3.5-1.2,3.5-3.5v-18.7h2.6v19.1c0,3.7-1.8,5.6-5.5,5.6   h-7.6c-3.7,0-5.5-1.9-5.5-5.6v-19.1H700.2z"></path>		<path class="st1" d="M763.4,188.2v2.5h-11c-2,0-3,1-3,3.2v2.4c0,1.9,0.9,2.8,2.7,2.8h7.3c3.2,0,4.8,1.6,4.8,4.9v3.5   c0,3.6-1.8,5.4-5.3,5.4H747v-2.5h11.6c2.1,0,3.1-1,3.1-3.2v-3c0-1.9-0.9-2.8-2.7-2.8h-7.3c-3.2,0-4.8-1.6-4.8-4.9v-2.8   c0-3.6,1.8-5.4,5.3-5.4H763.4z"></path>	</g></g><radialGradient id="SVGID_1_" cx="26.4471" cy="116.4072" r="38.966" gradientUnits="userSpaceOnUse">	<stop offset="0" style="stop-color:#FFFFFF"></stop>	<stop offset="0.49" style="stop-color:#E48F00"></stop>	<stop offset="1" style="stop-color:#E48F00"></stop></radialGradient><circle class="st2" cx="34.4" cy="126.2" r="18.5"></circle><radialGradient id="SVGID_00000095302212935281279930000002433033538182464673_" cx="142.7172" cy="113.5764" r="57.052" gradientUnits="userSpaceOnUse">	<stop offset="0" style="stop-color:#FFFFFF"></stop>	<stop offset="0.49" style="stop-color:#E48F00"></stop>	<stop offset="1" style="stop-color:#E48F00"></stop></radialGradient><path style="fill-rule:evenodd;clip-rule:evenodd;fill:url(#SVGID_00000095302212935281279930000002433033538182464673_);" d=" M127.3,127.9c0,14.9,12.1,27,27,27c14.9,0,27-12.1,27-27c0-14.9-12.1-27-27-27C139.4,100.9,127.3,113,127.3,127.9z"></path><path class="st0" d="M297.5,159.9c-6.3,0-9.4-3.2-9.4-9.6v-34.8c0-6.4,3.1-9.6,9.4-9.6h26.8l0-7h-28.1c-10.1,0-15.1,5.1-15.1,15.4 l0,37c0,10.3,5,15.4,15.1,15.4h7.7l0-7H297.5z"></path><path class="st0" d="M249,99.1c10.1,0,15.1,5.2,15.1,15.5l0,6.6c0,10.3-5,15.5-15.1,15.5h-24.2l0-6.6h23.5c5.8,0,8.7-3,8.7-9v-6 c0-6-2.9-9-8.7-9h-27.2v60.9h-7.1l0-67.8H249z"></path><radialGradient id="SVGID_00000121269533670939281840000001733829466603836075_" cx="114.5413" cy="36.3216" r="39.692" gradientUnits="userSpaceOnUse">	<stop offset="0" style="stop-color:#FFFFFF"></stop>	<stop offset="0.49" style="stop-color:#E48F00"></stop>	<stop offset="1" style="stop-color:#E48F00"></stop></radialGradient><path style="fill-rule:evenodd;clip-rule:evenodd;fill:url(#SVGID_00000121269533670939281840000001733829466603836075_);" d=" M141.5,46.3c0,10.4-8.4,18.8-18.8,18.8c-10.4,0-18.8-8.4-18.8-18.8c0-10.4,8.4-18.8,18.8-18.8C133,27.5,141.5,35.9,141.5,46.3z"></path><radialGradient id="SVGID_00000167379717096237009180000008920059553681180057_" cx="205.9895" cy="15.0182" r="39.2279" gradientUnits="userSpaceOnUse">	<stop offset="0" style="stop-color:#FFFFFF"></stop>	<stop offset="0.49" style="stop-color:#E48F00"></stop>	<stop offset="1" style="stop-color:#E48F00"></stop></radialGradient><path style="fill-rule:evenodd;clip-rule:evenodd;fill:url(#SVGID_00000167379717096237009180000008920059553681180057_);" d=" M232.6,24.9c0,10.3-8.3,18.6-18.6,18.6c-10.3,0-18.6-8.3-18.6-18.6c0-10.3,8.3-18.6,18.6-18.6C224.3,6.3,232.6,14.6,232.6,24.9z"></path><radialGradient id="SVGID_00000006705875903734627450000013946661328265889665_" cx="205.925" cy="221.5136" r="39.7007" gradientUnits="userSpaceOnUse">	<stop offset="0" style="stop-color:#FFFFFF"></stop>	<stop offset="0.49" style="stop-color:#E48F00"></stop>	<stop offset="1" style="stop-color:#E48F00"></stop></radialGradient><path style="fill-rule:evenodd;clip-rule:evenodd;fill:url(#SVGID_00000006705875903734627450000013946661328265889665_);" d=" M232.9,231.5c0-10.4-8.4-18.8-18.8-18.8c-10.4,0-18.8,8.4-18.8,18.8c0,10.4,8.4,18.8,18.8,18.8C224.4,250.3,232.9,241.9,232.9,231.5 z"></path><radialGradient id="SVGID_00000136399252204749905160000005671552027254982828_" cx="117.89" cy="215.6864" r="39.3619" gradientUnits="userSpaceOnUse">	<stop offset="0" style="stop-color:#FFFFFF"></stop>	<stop offset="0.49" style="stop-color:#E48F00"></stop>	<stop offset="1" style="stop-color:#E48F00"></stop></radialGradient><path style="fill-rule:evenodd;clip-rule:evenodd;fill:url(#SVGID_00000136399252204749905160000005671552027254982828_);" d=" M144.6,225.6c0-10.3-8.4-18.7-18.7-18.7c-10.3,0-18.7,8.4-18.7,18.7c0,10.3,8.4,18.7,18.7,18.7C136.2,244.2,144.6,235.9,144.6,225.6 z"></path></svg>